<svg width="55" height="52" viewBox="0 0 55 52" fill="none" xmlns="http://www.w3.org/2000/svg">
<path d="M52.5199 36.3674C51.7665 32.4126 48.2825 29.5876 44.2334 29.5876H37.6419C33.5929 29.5876 30.1088 32.5067 29.3555 36.3674C28.3197 36.6499 27.5664 37.5916 27.5664 38.7215C27.5664 39.3807 27.8489 39.9457 28.2256 40.4165C27.8489 40.8873 27.5664 41.4523 27.5664 42.1114C27.5664 43.2414 28.3197 44.183 29.3555 44.4655C30.1088 48.4204 33.5929 51.2453 37.6419 51.2453H44.2334C48.2825 51.2453 51.7665 48.3263 52.5199 44.4655C53.5557 44.183 54.309 43.2414 54.309 42.1114C54.309 41.4523 54.0265 40.8873 53.6498 40.4165C54.0265 39.9457 54.309 39.3807 54.309 38.7215C54.309 37.6857 53.5557 36.6499 52.5199 36.3674ZM37.6419 31.2826H44.2334C47.3408 31.2826 49.9774 33.3542 50.8249 36.2733H50.5424L50.3541 36.085C49.8833 35.6141 49.3183 35.4258 48.7533 35.4258H48.2825C47.7175 35.4258 47.1525 35.6141 46.6817 36.085C46.5875 36.1791 46.3992 36.2733 46.305 36.2733H45.8342C45.6459 36.2733 45.5517 36.1791 45.4576 36.085C44.9867 35.6141 44.4218 35.4258 43.8568 35.4258H43.3859C42.821 35.4258 42.256 35.6141 41.7852 36.085C41.691 36.1791 41.5027 36.2733 41.4085 36.2733H40.9377C40.7494 36.2733 40.6552 36.1791 40.561 36.085C40.0902 35.6141 39.5252 35.4258 38.9602 35.4258H38.4894C37.9244 35.4258 37.3595 35.6141 36.8886 36.085C36.7945 36.1791 36.6061 36.2733 36.512 36.2733H36.0412C35.8528 36.2733 35.7587 36.1791 35.6645 36.085C35.1937 35.6141 34.6287 35.4258 34.0637 35.4258H33.5929C33.0279 35.4258 32.4629 35.6141 31.9921 36.085L31.4271 36.2733H31.1446C31.8979 33.3542 34.5345 31.2826 37.6419 31.2826ZM30.1088 37.9682H32.0863L32.7454 37.3091C32.8396 37.2149 33.0279 37.1208 33.1221 37.1208H33.5929C33.7812 37.1208 33.8754 37.2149 33.9696 37.3091C34.4404 37.7799 35.0054 37.9682 35.5703 37.9682H36.1353C36.7003 37.9682 37.2653 37.7799 37.7361 37.3091C37.8303 37.2149 38.0186 37.1208 38.1128 37.1208H38.5836C38.7719 37.1208 38.8661 37.2149 38.9602 37.3091C39.4311 37.7799 39.996 37.9682 40.561 37.9682H41.0318C41.5968 37.9682 42.1618 37.7799 42.6326 37.3091C42.7268 37.2149 42.9151 37.1208 43.0093 37.1208H43.6684C43.8568 37.1208 43.9509 37.2149 44.0451 37.3091C44.5159 37.7799 45.0809 37.9682 45.6459 37.9682H46.1167C46.6817 37.9682 47.2467 37.7799 47.7175 37.3091C47.8117 37.2149 48 37.1208 48.0941 37.1208H48.565C48.7533 37.1208 48.8475 37.2149 48.9416 37.3091L49.6008 37.9682H51.5782C52.049 37.9682 52.4257 38.3449 52.4257 38.8157C52.4257 39.2865 52.049 39.6632 51.5782 39.6632H30.1088C29.638 39.6632 29.2614 39.2865 29.2614 38.8157C29.2614 38.3449 29.638 37.9682 30.1088 37.9682ZM44.2334 49.6446H37.6419C34.5345 49.6446 31.8979 47.5729 31.0505 44.6539H50.7307C49.9774 47.5729 47.3408 49.6446 44.2334 49.6446ZM51.7665 42.9589H30.1088C29.638 42.9589 29.2614 42.5823 29.2614 42.1114C29.2614 41.6406 29.638 41.264 30.1088 41.264H51.8607C52.3315 41.264 52.7082 41.6406 52.7082 42.1114C52.614 42.5823 52.2374 42.9589 51.7665 42.9589Z" fill="#57B6BB"/>
<path d="M28.4085 44.8823H25.0186V20.5966H36.0358V28.7803C36.3182 28.7803 36.6007 28.7803 36.8832 28.7803C37.2599 28.7803 37.5424 28.7803 37.8249 28.8745V20.6908H39.614C40.0848 20.6908 40.5556 20.2199 40.5556 19.7491V11.3685C40.5556 10.8977 40.0848 10.4269 39.614 10.4269H29.1618C30.0093 9.48523 30.5743 8.16691 30.5743 6.75445C30.5743 3.74121 28.126 1.29296 25.1127 1.29296C23.3236 1.29296 21.7229 2.14042 20.7812 3.45871C19.7454 1.57544 17.768 0.351318 15.508 0.351318C12.2123 0.351318 9.57571 2.9879 9.57571 6.28363C9.57571 7.88442 10.2349 9.2969 11.2707 10.4269H1.28929C0.818475 10.4269 0.347656 10.8977 0.347656 11.3685V19.5608C0.347656 20.0316 0.818475 20.5024 1.28929 20.5024H3.07841V45.7298C3.07841 46.2006 3.54923 46.6714 4.02005 46.6714H29.0676C28.7851 46.1064 28.5968 45.5415 28.4085 44.8823ZM38.7665 12.3101V18.7133H25.0186V12.3101H38.7665ZM21.4404 6.84865C21.4404 4.77704 23.0411 3.17623 25.1127 3.17623C27.1844 3.17623 28.7851 4.77704 28.7851 6.84865C28.7851 8.92026 27.1844 10.521 25.1127 10.521H21.4404V6.84865ZM15.4139 2.2346C17.6738 2.2346 19.5571 4.02373 19.5571 6.37783V10.521H15.4139C13.1539 10.521 11.2707 8.73193 11.2707 6.37783C11.3648 4.1179 13.1539 2.2346 15.4139 2.2346ZM15.8847 44.8823H4.96168V20.5966H15.9789V44.8823H15.8847ZM15.8847 18.7133H2.13677V12.3101H15.8847V18.7133ZM23.2295 44.8823H17.768V20.5966H23.2295V44.8823ZM23.2295 18.7133H17.768V12.3101H23.2295V18.7133Z" fill="#57B6BB"/>
</svg>
