<svg width="64" height="51" viewBox="0 0 64 51" fill="none" xmlns="http://www.w3.org/2000/svg">
<path d="M40.2035 5.47863C39.6517 2.62644 37.0769 0.456299 34.1342 0.456299H29.291C26.3484 0.456299 23.7735 2.62644 23.2218 5.47863C22.4248 5.72665 21.873 6.4087 21.873 7.27675C21.873 7.77279 22.057 8.20682 22.3635 8.51684C22.057 8.82686 21.873 9.26089 21.873 9.75692C21.873 10.625 22.4248 11.307 23.1605 11.555C23.7122 14.4692 26.2871 16.5774 29.2297 16.5774H34.0729C37.0156 16.5774 39.5904 14.4072 40.1422 11.555C40.8778 11.307 41.4296 10.625 41.4296 9.75692C41.4296 9.26089 41.2457 8.82686 40.9391 8.51684C41.2457 8.20682 41.4296 7.77279 41.4296 7.27675C41.4909 6.4087 40.9391 5.72665 40.2035 5.47863ZM29.291 1.69638H34.1342C36.4025 1.69638 38.3643 3.24648 38.916 5.41663H38.6708L38.5482 5.29262C38.2417 4.9826 37.8738 4.79659 37.3834 4.79659H37.0156C36.5864 4.79659 36.1573 4.9826 35.8508 5.29262C35.7894 5.35463 35.6668 5.41663 35.5442 5.41663H35.1764C35.0538 5.41663 34.9312 5.35463 34.8699 5.29262C34.5633 4.9826 34.1955 4.79659 33.7051 4.79659H33.3372C32.9081 4.79659 32.4789 4.9826 32.1724 5.29262C32.1111 5.35463 31.9885 5.41663 31.8659 5.41663H31.498C31.3754 5.41663 31.2528 5.35463 31.1915 5.29262C30.885 4.9826 30.5172 4.79659 30.0267 4.79659H29.6589C29.2297 4.79659 28.8006 4.9826 28.4941 5.29262C28.4328 5.35463 28.3101 5.41663 28.1875 5.41663H27.8197C27.6971 5.41663 27.5745 5.35463 27.5132 5.29262C27.2066 4.9826 26.8388 4.79659 26.3484 4.79659H25.9805C25.5514 4.79659 25.1223 4.9826 24.8157 5.29262L24.6931 5.41663H24.4479C25.0609 3.24648 27.0227 1.69638 29.291 1.69638ZM23.7122 6.65671H25.1836L25.674 6.16068C25.7966 6.09867 25.9192 6.03667 25.9805 6.03667H26.3484C26.471 6.03667 26.5936 6.09867 26.6549 6.16068C26.9614 6.4707 27.3906 6.65671 27.8197 6.65671H28.1875C28.6167 6.65671 29.0458 6.4707 29.3523 6.16068C29.475 6.09867 29.5976 6.03667 29.6589 6.03667H30.0267C30.1493 6.03667 30.2719 6.09867 30.3332 6.16068C30.6398 6.4707 31.0689 6.65671 31.498 6.65671H31.8659C32.295 6.65671 32.7242 6.4707 33.0307 6.16068C33.1533 6.09867 33.2759 6.03667 33.3372 6.03667H33.7051C33.8277 6.03667 33.9503 6.09867 34.0116 6.16068C34.3181 6.4707 34.7472 6.65671 35.1764 6.65671H35.5442C35.9734 6.65671 36.4025 6.4707 36.709 6.16068C36.8316 6.09867 36.9543 6.03667 37.0156 6.03667H37.3834C37.506 6.03667 37.6286 6.09867 37.6899 6.16068L38.1804 6.65671H39.6517C40.0195 6.65671 40.2648 6.90473 40.2648 7.27675C40.2648 7.64878 40.0195 7.89679 39.6517 7.89679H23.7122C23.3444 7.89679 23.0992 7.64878 23.0992 7.27675C23.0992 6.90473 23.4057 6.65671 23.7122 6.65671ZM34.1342 15.3373H29.291C27.0227 15.3373 25.0609 13.7872 24.5092 11.617H38.9773C38.3643 13.7872 36.4025 15.3373 34.1342 15.3373ZM39.6517 10.377H23.7122C23.3444 10.377 23.0992 10.1289 23.0992 9.75692C23.0992 9.38489 23.3444 9.13688 23.7122 9.13688H39.6517C40.0195 9.13688 40.2648 9.38489 40.2648 9.75692C40.2648 10.1289 40.0195 10.377 39.6517 10.377Z" fill="#E67285"/>
<path d="M18.7054 39.3346C18.1537 36.4204 15.5788 34.3123 12.6361 34.3123H7.79299C4.85032 34.3123 2.27548 36.4824 1.72373 39.3346C0.926752 39.5826 0.375 40.2647 0.375 41.1327C0.375 41.6287 0.558917 42.0628 0.865446 42.3728C0.558917 42.6828 0.375 43.1168 0.375 43.6129C0.375 44.4809 0.926752 45.163 1.66242 45.411C2.21417 48.3252 4.78901 50.4333 7.73169 50.4333H12.5748C15.5175 50.4333 18.0924 48.2632 18.6441 45.411C19.3798 45.163 19.9315 44.4809 19.9315 43.6129C19.9315 43.1168 19.7476 42.6828 19.4411 42.3728C19.7476 42.0628 19.9315 41.6287 19.9315 41.1327C19.9928 40.2647 19.4411 39.5826 18.7054 39.3346ZM7.79299 35.5523H12.6361C14.9045 35.5523 16.8662 37.1024 17.418 39.2726H17.1728L17.0502 39.1486C16.7436 38.8386 16.3145 38.6525 15.8854 38.6525H15.5175C15.0884 38.6525 14.6592 38.8386 14.3527 39.1486C14.2914 39.2106 14.1688 39.2726 14.0462 39.2726H13.6783C13.5557 39.2726 13.4331 39.2106 13.3718 39.1486C13.0653 38.8386 12.6361 38.6525 12.207 38.6525H11.8392C11.41 38.6525 10.9809 38.8386 10.6744 39.1486C10.6131 39.2106 10.4904 39.2726 10.3678 39.2726H10C9.87739 39.2726 9.75478 39.2106 9.69347 39.1486C9.38694 38.8386 8.9578 38.6525 8.52866 38.6525H8.16083C7.73169 38.6525 7.30255 38.8386 6.99602 39.1486C6.93471 39.2106 6.8121 39.2726 6.68949 39.2726H6.32166C6.19905 39.2726 6.07643 39.2106 6.01513 39.1486C5.7086 38.8386 5.27946 38.6525 4.85032 38.6525H4.48248C4.05334 38.6525 3.6242 38.8386 3.31768 39.1486L3.19506 39.2726H2.94984C3.5629 37.1024 5.52468 35.5523 7.79299 35.5523ZM2.21417 40.5127H3.68551L4.17596 40.0166C4.23726 39.9546 4.35987 39.8926 4.48248 39.8926H4.85032C4.97293 39.8926 5.09554 39.9546 5.15685 40.0166C5.46338 40.3267 5.89252 40.5127 6.32166 40.5127H6.68949C7.11863 40.5127 7.54777 40.3267 7.8543 40.0166C7.91561 39.9546 8.03822 39.8926 8.16083 39.8926H8.52866C8.65127 39.8926 8.77389 39.9546 8.83519 40.0166C9.14172 40.3267 9.57086 40.5127 10 40.5127H10.3678C10.797 40.5127 11.2261 40.3267 11.5326 40.0166C11.594 39.9546 11.7166 39.8926 11.8392 39.8926H12.207C12.3296 39.8926 12.4522 39.9546 12.5135 40.0166C12.8201 40.3267 13.2492 40.5127 13.6783 40.5127H14.0462C14.4753 40.5127 14.9045 40.3267 15.211 40.0166C15.2723 39.9546 15.3949 39.8926 15.5175 39.8926H15.8854C16.008 39.8926 16.1306 39.9546 16.1919 40.0166L16.6823 40.5127H18.1537C18.5215 40.5127 18.7667 40.7607 18.7667 41.1327C18.7667 41.5047 18.5215 41.7528 18.1537 41.7528H2.21417C1.84634 41.7528 1.60111 41.5047 1.60111 41.1327C1.60111 40.7607 1.84634 40.5127 2.21417 40.5127ZM12.5748 49.1932H7.73169C5.46338 49.1932 3.50159 47.6431 2.94984 45.473H17.418C16.8049 47.6431 14.8432 49.1932 12.5748 49.1932ZM18.1537 44.2329H2.21417C1.84634 44.2329 1.60111 43.9849 1.60111 43.6129C1.60111 43.2408 1.84634 42.9928 2.21417 42.9928H18.1537C18.5215 42.9928 18.7667 43.2408 18.7667 43.6129C18.7667 43.9229 18.5215 44.2329 18.1537 44.2329Z" fill="#E67285"/>
<path d="M40.4136 39.3346C39.8619 36.4204 37.287 34.3123 34.3444 34.3123H29.5012C26.5585 34.3123 23.9837 36.4824 23.432 39.3346C22.6963 39.5826 22.1445 40.2647 22.1445 41.1327C22.1445 41.6287 22.3284 42.0628 22.635 42.3728C22.3284 42.6828 22.1445 43.1168 22.1445 43.6129C22.1445 44.4809 22.6963 45.163 23.432 45.411C23.9837 48.3252 26.5585 50.4333 29.5012 50.4333H34.3444C37.287 50.4333 39.8619 48.2632 40.4136 45.411C41.1493 45.163 41.7011 44.4809 41.7011 43.6129C41.7011 43.1168 41.5171 42.6828 41.2106 42.3728C41.5171 42.0628 41.7011 41.6287 41.7011 41.1327C41.7011 40.2647 41.1493 39.5826 40.4136 39.3346ZM29.5012 35.5523H34.3444C36.6127 35.5523 38.5745 37.1024 39.1262 39.2726H38.881L38.7584 39.1486C38.4519 38.8386 38.0227 38.6525 37.5936 38.6525H37.2257C36.7966 38.6525 36.3675 38.8386 36.0609 39.1486C35.9996 39.2106 35.877 39.2726 35.7544 39.2726H35.3866C35.264 39.2726 35.1413 39.2106 35.08 39.1486C34.7735 38.8386 34.3444 38.6525 33.9152 38.6525H33.5474C33.1183 38.6525 32.6891 38.8386 32.3826 39.1486C32.3213 39.2106 32.1987 39.2726 32.0761 39.2726H31.7082C31.5856 39.2726 31.463 39.2106 31.4017 39.1486C31.0952 38.8386 30.666 38.6525 30.2369 38.6525H29.8691C29.4399 38.6525 29.0108 38.8386 28.7042 39.1486C28.6429 39.2106 28.5203 39.2726 28.3977 39.2726H28.0299C27.9073 39.2726 27.7847 39.2106 27.7234 39.1486C27.4168 38.8386 26.9877 38.6525 26.5585 38.6525H26.1907C25.7616 38.6525 25.3324 38.8386 25.0259 39.1486L24.9033 39.2726H24.6581C25.2711 37.1024 27.2329 35.5523 29.5012 35.5523ZM23.9224 40.5127H25.3937L25.8842 40.0166C25.9455 39.9546 26.0681 39.8926 26.1907 39.8926H26.5585C26.6812 39.8926 26.8038 39.9546 26.8651 40.0166C27.1716 40.3267 27.6007 40.5127 28.0299 40.5127H28.3977C28.8269 40.5127 29.256 40.3267 29.5625 40.0166C29.6238 39.9546 29.7464 39.8926 29.8691 39.8926H30.2369C30.3595 39.8926 30.4821 39.9546 30.5434 40.0166C30.8499 40.3267 31.2791 40.5127 31.7082 40.5127H32.0761C32.5052 40.5127 32.9343 40.3267 33.2409 40.0166C33.3022 39.9546 33.4248 39.8926 33.5474 39.8926H33.9152C34.0378 39.8926 34.1605 39.9546 34.2218 40.0166C34.5283 40.3267 34.9574 40.5127 35.3866 40.5127H35.7544C36.1835 40.5127 36.6127 40.3267 36.9192 40.0166C36.9805 39.9546 37.1031 39.8926 37.2257 39.8926H37.5936C37.7162 39.8926 37.8388 39.9546 37.9001 40.0166L38.3906 40.5127H39.8619C40.2297 40.5127 40.4749 40.7607 40.4749 41.1327C40.4749 41.5047 40.2297 41.7528 39.8619 41.7528H23.9224C23.5546 41.7528 23.3093 41.5047 23.3093 41.1327C23.3093 40.7607 23.6159 40.5127 23.9224 40.5127ZM34.3444 49.1932H29.5012C27.2329 49.1932 25.2711 47.6431 24.7194 45.473H39.1875C38.5745 47.6431 36.6127 49.1932 34.3444 49.1932ZM39.8619 44.2329H23.9224C23.5546 44.2329 23.3093 43.9849 23.3093 43.6129C23.3093 43.2408 23.5546 42.9928 23.9224 42.9928H39.8619C40.2297 42.9928 40.4749 43.2408 40.4749 43.6129C40.4749 43.9229 40.2297 44.2329 39.8619 44.2329Z" fill="#E67285"/>
<path d="M62.0953 39.3346C61.5435 36.4204 58.9687 34.3123 56.026 34.3123H51.1829C48.2402 34.3123 45.6653 36.4824 45.1136 39.3346C44.3779 39.5826 43.8262 40.2647 43.8262 41.1327C43.8262 41.6287 44.0101 42.0628 44.3166 42.3728C44.0101 42.6828 43.8262 43.1168 43.8262 43.6129C43.8262 44.4809 44.3779 45.163 45.1136 45.411C45.6653 48.3252 48.2402 50.4333 51.1829 50.4333H56.026C58.9687 50.4333 61.5435 48.2632 62.0953 45.411C62.8309 45.163 63.3827 44.4809 63.3827 43.6129C63.3827 43.1168 63.1988 42.6828 62.8923 42.3728C63.1988 42.0628 63.3827 41.6287 63.3827 41.1327C63.444 40.2647 62.8923 39.5826 62.0953 39.3346ZM51.1829 35.5523H56.026C58.2943 35.5523 60.2561 37.1024 60.8079 39.2726H60.5626L60.44 39.1486C60.1335 38.8386 59.7044 38.6525 59.2752 38.6525H58.9074C58.4782 38.6525 58.0491 38.8386 57.7426 39.1486C57.6813 39.2106 57.5587 39.2726 57.436 39.2726H57.0682C56.9456 39.2726 56.823 39.2106 56.7617 39.1486C56.4552 38.8386 56.026 38.6525 55.5969 38.6525H55.229C54.7999 38.6525 54.3708 38.8386 54.0642 39.1486C54.0029 39.2106 53.8803 39.2726 53.7577 39.2726H53.3899C53.2673 39.2726 53.1446 39.2106 53.0833 39.1486C52.7768 38.8386 52.3477 38.6525 51.9185 38.6525H51.5507C51.1216 38.6525 50.6924 38.8386 50.3859 39.1486C50.3246 39.2106 50.202 39.2726 50.0794 39.2726H49.7115C49.5889 39.2726 49.4663 39.2106 49.405 39.1486C49.0985 38.8386 48.6693 38.6525 48.2402 38.6525H47.8723C47.4432 38.6525 47.0141 38.8386 46.7075 39.1486L46.5849 39.2726H46.3397C46.9528 37.1024 48.9145 35.5523 51.1829 35.5523ZM45.6653 40.5127H47.1367L47.6271 40.0166C47.6884 39.9546 47.811 39.8926 47.9337 39.8926H48.3015C48.4241 39.8926 48.5467 39.9546 48.608 40.0166C48.9145 40.3267 49.3437 40.5127 49.7728 40.5127H50.1407C50.5698 40.5127 50.9989 40.3267 51.3055 40.0166C51.3668 39.9546 51.4894 39.8926 51.612 39.8926H51.9798C52.1024 39.8926 52.2251 39.9546 52.2864 40.0166C52.5929 40.3267 53.022 40.5127 53.4512 40.5127H53.819C54.2481 40.5127 54.6773 40.3267 54.9838 40.0166C55.0451 39.9546 55.1677 39.8926 55.2903 39.8926H55.6582C55.7808 39.8926 55.9034 39.9546 55.9647 40.0166C56.2712 40.3267 56.7004 40.5127 57.1295 40.5127H57.4973C57.9265 40.5127 58.3556 40.3267 58.6622 40.0166C58.7235 39.9546 58.8461 39.8926 58.9687 39.8926H59.3365C59.4591 39.8926 59.5817 39.9546 59.643 40.0166L60.1335 40.5127H61.6048C61.9727 40.5127 62.2179 40.7607 62.2179 41.1327C62.2179 41.5047 61.9727 41.7528 61.6048 41.7528H45.6653C45.2975 41.7528 45.0523 41.5047 45.0523 41.1327C45.0523 40.7607 45.2975 40.5127 45.6653 40.5127ZM56.026 49.1932H51.1829C48.9145 49.1932 46.9528 47.6431 46.401 45.473H60.8692C60.2561 47.6431 58.2943 49.1932 56.026 49.1932ZM61.6048 44.2329H45.6653C45.2975 44.2329 45.0523 43.9849 45.0523 43.6129C45.0523 43.2408 45.2975 42.9928 45.6653 42.9928H61.6048C61.9727 42.9928 62.2179 43.2408 62.2179 43.6129C62.2179 43.9229 61.9114 44.2329 61.6048 44.2329Z" fill="#E67285"/>
<path d="M29.5543 22.4034C29.0025 19.4892 26.4277 17.3811 23.485 17.3811H18.6418C15.6992 17.3811 13.1243 19.5512 12.5726 22.4034C11.8369 22.6515 11.2852 23.3335 11.2852 24.2016C11.2852 24.6976 11.4691 25.1316 11.7756 25.4416C11.4691 25.7517 11.2852 26.1857 11.2852 26.6817C11.2852 27.5498 11.8369 28.2318 12.5726 28.4798C13.1243 31.394 15.6992 33.5022 18.6418 33.5022H23.485C26.4277 33.5022 29.0025 31.332 29.5543 28.4798C30.2899 28.2318 30.8417 27.5498 30.8417 26.6817C30.8417 26.1857 30.6578 25.7517 30.3512 25.4416C30.6578 25.1316 30.8417 24.6976 30.8417 24.2016C30.8417 23.3335 30.2899 22.5895 29.5543 22.4034ZM18.6418 18.5592H23.485C25.7533 18.5592 27.7151 20.1093 28.2668 22.2794H28.0216L27.899 22.1554C27.5925 21.8454 27.1633 21.6594 26.7342 21.6594H26.3664C25.9372 21.6594 25.5081 21.8454 25.2016 22.1554C25.1403 22.2174 25.0176 22.2794 24.895 22.2794H24.5272C24.4046 22.2794 24.282 22.2174 24.2207 22.1554C23.9141 21.8454 23.485 21.6594 23.0559 21.6594H22.688C22.2589 21.6594 21.8297 21.8454 21.5232 22.1554C21.4619 22.2174 21.3393 22.2794 21.2167 22.2794H20.8489C20.7262 22.2794 20.6036 22.2174 20.5423 22.1554C20.2358 21.8454 19.8067 21.6594 19.3775 21.6594H19.0097C18.5805 21.6594 18.1514 21.8454 17.8449 22.1554C17.7836 22.2174 17.661 22.2794 17.5383 22.2794H17.1705C17.0479 22.2794 16.9253 22.2174 16.864 22.1554C16.5574 21.8454 16.1283 21.6594 15.6992 21.6594H15.3313C14.9022 21.6594 14.4731 21.8454 14.1665 22.1554L14.0439 22.2794H13.7987C14.4117 20.1093 16.3735 18.5592 18.6418 18.5592ZM13.063 23.5195H14.5344L15.0248 23.0235C15.0861 22.9615 15.2087 22.8995 15.3313 22.8995H15.6992C15.8218 22.8995 15.9444 22.9615 16.0057 23.0235C16.3122 23.3335 16.7414 23.5195 17.1705 23.5195H17.5383C17.9675 23.5195 18.3966 23.3335 18.7032 23.0235C18.7645 22.9615 18.8871 22.8995 19.0097 22.8995H19.3775C19.5001 22.8995 19.6227 22.9615 19.684 23.0235C19.9906 23.3335 20.4197 23.5195 20.8489 23.5195H21.2167C21.6458 23.5195 22.075 23.3335 22.3815 23.0235C22.4428 22.9615 22.5654 22.8995 22.688 22.8995H23.0559C23.1785 22.8995 23.3011 22.9615 23.3624 23.0235C23.6689 23.3335 24.0981 23.5195 24.5272 23.5195H24.895C25.3242 23.5195 25.7533 23.3335 26.0598 23.0235C26.1211 22.9615 26.2438 22.8995 26.3664 22.8995H26.7342C26.8568 22.8995 26.9794 22.9615 27.0407 23.0235L27.5312 23.5195H29.0025C29.3703 23.5195 29.6156 23.7675 29.6156 24.1396C29.6156 24.5116 29.3703 24.7596 29.0025 24.7596H13.063C12.6952 24.7596 12.45 24.5116 12.45 24.1396C12.45 23.7675 12.7565 23.5195 13.063 23.5195ZM23.485 32.2001H18.6418C16.3735 32.2001 14.4117 30.65 13.86 28.4798H28.3282C27.6538 30.65 25.7533 32.2001 23.485 32.2001ZM29.0025 27.2398H13.063C12.6952 27.2398 12.45 26.9917 12.45 26.6197C12.45 26.2477 12.6952 25.9997 13.063 25.9997H29.0025C29.3703 25.9997 29.6156 26.2477 29.6156 26.6197C29.6156 26.9917 29.3703 27.2398 29.0025 27.2398Z" fill="#E67285"/>
<path d="M51.2789 22.4034C50.7271 19.4892 48.1523 17.3811 45.2096 17.3811H40.3665C37.4238 17.3811 34.8489 19.5512 34.2972 22.4034C33.5615 22.6515 33.0098 23.3335 33.0098 24.2016C33.0098 24.6976 33.1937 25.1316 33.5002 25.4416C33.1937 25.7517 33.0098 26.1857 33.0098 26.6817C33.0098 27.5498 33.5615 28.2318 34.2972 28.4798C34.8489 31.394 37.4238 33.5022 40.3665 33.5022H45.2096C48.1523 33.5022 50.7271 31.332 51.2789 28.4798C52.0145 28.2318 52.5663 27.5498 52.5663 26.6817C52.5663 26.1857 52.3824 25.7517 52.0759 25.4416C52.3824 25.1316 52.5663 24.6976 52.5663 24.2016C52.5663 23.3335 52.0145 22.5895 51.2789 22.4034ZM40.3665 18.5592H45.2096C47.4779 18.5592 49.4397 20.1093 49.9915 22.2794H49.7462L49.6236 22.1554C49.3171 21.8454 48.888 21.6594 48.4588 21.6594H48.091C47.6618 21.6594 47.2327 21.8454 46.9262 22.1554C46.8649 22.2174 46.7423 22.2794 46.6196 22.2794H46.2518C46.1292 22.2794 46.0066 22.2174 45.9453 22.1554C45.6388 21.8454 45.2096 21.6594 44.7805 21.6594H44.4126C43.9835 21.6594 43.5544 21.8454 43.2478 22.1554C43.1865 22.2174 43.0639 22.2794 42.9413 22.2794H42.5735C42.4509 22.2794 42.3282 22.2174 42.2669 22.1554C41.9604 21.8454 41.5313 21.6594 41.1021 21.6594H40.7343C40.3052 21.6594 39.876 21.8454 39.5695 22.1554C39.5082 22.2174 39.3856 22.2794 39.263 22.2794H38.8951C38.7725 22.2794 38.6499 22.2174 38.5886 22.1554C38.2821 21.8454 37.8529 21.6594 37.4238 21.6594H37.0559C36.6268 21.6594 36.1977 21.8454 35.8911 22.1554L35.7685 22.2794H35.5233C36.1364 20.1093 38.0981 18.5592 40.3665 18.5592ZM34.7876 23.5195H36.259L36.7494 23.0235C36.8107 22.9615 36.9333 22.8995 37.0559 22.8995H37.4238C37.5464 22.8995 37.669 22.9615 37.7303 23.0235C38.0368 23.3335 38.466 23.5195 38.8951 23.5195H39.263C39.6921 23.5195 40.1212 23.3335 40.4278 23.0235C40.4891 22.9615 40.6117 22.8995 40.7343 22.8995H41.1021C41.2247 22.8995 41.3473 22.9615 41.4087 23.0235C41.7152 23.3335 42.1443 23.5195 42.5735 23.5195H42.9413C43.3704 23.5195 43.7996 23.3335 44.1061 23.0235C44.1674 22.9615 44.29 22.8995 44.4126 22.8995H44.7805C44.9031 22.8995 45.0257 22.9615 45.087 23.0235C45.3935 23.3335 45.8227 23.5195 46.2518 23.5195H46.6196C47.0488 23.5195 47.4779 23.3335 47.7845 23.0235C47.8458 22.9615 47.9684 22.8995 48.091 22.8995H48.4588C48.5814 22.8995 48.704 22.9615 48.7653 23.0235L49.2558 23.5195H50.7271C51.095 23.5195 51.3402 23.7675 51.3402 24.1396C51.3402 24.5116 51.095 24.7596 50.7271 24.7596H34.7876C34.4198 24.7596 34.1746 24.5116 34.1746 24.1396C34.1746 23.7675 34.4811 23.5195 34.7876 23.5195ZM45.2096 32.2001H40.3665C38.0981 32.2001 36.1364 30.65 35.5846 28.4798H50.0528C49.4397 30.65 47.4779 32.2001 45.2096 32.2001ZM50.7271 27.2398H34.7876C34.4198 27.2398 34.1746 26.9917 34.1746 26.6197C34.1746 26.2477 34.4198 25.9997 34.7876 25.9997H50.7271C51.095 25.9997 51.3402 26.2477 51.3402 26.6197C51.3402 26.9917 51.095 27.2398 50.7271 27.2398Z" fill="#E67285"/>
</svg>
