<svg width="44" height="60" viewBox="0 0 44 60" fill="none" xmlns="http://www.w3.org/2000/svg">
<path d="M2.21627 56.0946L3.05241 58.4948C3.20444 58.9593 3.73654 59.1916 4.6487 59.1916H39.3108C40.223 59.1916 40.7551 58.9593 40.9071 58.4948L41.7432 56.0946C42.8834 56.0946 43.8716 55.0881 43.8716 53.9267V52.8427C43.8716 51.6814 42.8834 50.6749 41.7432 50.6749H40.6791V28.1442C40.6791 27.6797 40.375 27.37 39.9189 27.37H38.0946V12.3495C38.0946 11.885 37.7906 11.5753 37.3345 11.5753H31.9375V1.58748C31.9375 1.12293 31.6335 0.813232 31.1774 0.813232H12.7821C12.3261 0.813232 12.022 1.12293 12.022 1.58748V11.5753H6.62505C6.16897 11.5753 5.86491 11.885 5.86491 12.3495V27.4474H4.04059C3.58451 27.4474 3.28046 27.7571 3.28046 28.2216V50.7523H2.21627C1.07607 50.7523 0.0878906 51.7588 0.0878906 52.9202V53.9267C0.163904 55.0881 1.07607 56.0946 2.21627 56.0946ZM39.3868 57.6431H4.6487C4.57268 57.6431 4.42066 57.6431 4.34464 57.6431L3.81255 56.0946H40.147L39.6149 57.6431C39.5389 57.6431 39.4628 57.6431 39.3868 57.6431ZM32.7737 40.8419C32.3176 40.8419 32.0135 41.1516 32.0135 41.6161C32.0135 43.2421 30.7213 44.4809 29.201 44.4809C27.6048 44.4809 26.3885 43.1646 26.3885 41.6161C26.3885 41.1516 26.0845 40.8419 25.6284 40.8419C25.1723 40.8419 24.8683 41.1516 24.8683 41.6161C24.8683 43.2421 23.576 44.4809 22.0558 44.4809C20.5355 44.4809 19.2433 43.1646 19.2433 41.6161C19.2433 41.1516 18.9392 40.8419 18.4831 40.8419C18.0271 40.8419 17.723 41.1516 17.723 41.6161C17.723 43.2421 16.4308 44.4809 14.9105 44.4809C13.3142 44.4809 12.098 43.1646 12.098 41.6161C12.098 41.1516 11.794 40.8419 11.3379 40.8419C10.8818 40.8419 10.5777 41.1516 10.5777 41.6161C10.5777 43.2421 9.28552 44.4809 7.76525 44.4809C6.16897 44.4809 4.95275 43.1646 4.95275 41.6161V37.4352C5.71288 38.132 6.70106 38.5191 7.76525 38.5191C9.28552 38.5191 10.5777 37.7449 11.3379 36.5835C12.098 37.7449 13.4663 38.5191 14.9105 38.5191C16.4308 38.5191 17.723 37.7449 18.4831 36.5835C19.2433 37.7449 20.6115 38.5191 22.0558 38.5191C23.5 38.5191 24.8683 37.7449 25.6284 36.5835C26.3885 37.7449 27.7568 38.5191 29.201 38.5191C30.7213 38.5191 32.0135 37.7449 32.7737 36.5835C33.5338 37.7449 34.902 38.5191 36.3463 38.5191C37.4105 38.5191 38.3987 38.132 39.1588 37.4352V41.6936C39.1588 43.3195 37.8666 44.5583 36.3463 44.5583C34.75 44.5583 33.5338 43.2421 33.5338 41.6936C33.5338 41.229 33.2297 40.8419 32.7737 40.8419ZM30.4933 2.36173V5.61358C30.4933 6.9298 29.4291 7.93632 28.2129 7.93632C26.9966 7.93632 25.9325 6.85237 25.9325 5.61358C25.9325 5.14903 25.6284 4.83933 25.1723 4.83933C24.7162 4.83933 24.4122 5.14903 24.4122 5.61358C24.4122 6.9298 23.348 7.93632 22.1318 7.93632C20.8396 7.93632 19.8514 6.85237 19.8514 5.61358C19.8514 5.14903 19.5473 4.83933 19.0912 4.83933C18.6352 4.83933 18.3311 5.14903 18.3311 5.61358C18.3311 6.9298 17.2669 7.93632 16.0507 7.93632C14.8345 7.93632 13.7703 6.85237 13.7703 5.61358V2.36173H30.4933ZM13.5423 8.71057C14.1504 9.25254 14.9865 9.56224 15.8227 9.56224C17.1149 9.56224 18.1791 8.94285 18.8632 7.93632C19.5473 8.86542 20.6875 9.56224 21.9037 9.56224C23.196 9.56224 24.2602 8.94285 24.9443 7.93632C25.6284 8.86542 26.7686 9.56224 27.9848 9.56224C28.821 9.56224 29.6571 9.25255 30.2652 8.788V11.6527H13.5423V8.71057ZM36.5743 13.1238V18.9307C36.5743 20.2469 35.5101 21.2534 34.2939 21.2534C33.0777 21.2534 32.0135 20.1695 32.0135 18.9307C32.0135 18.4661 31.7095 18.1564 31.2534 18.1564C30.7973 18.1564 30.4933 18.4661 30.4933 18.9307C30.4933 20.2469 29.4291 21.2534 28.2129 21.2534C26.9966 21.2534 25.9325 20.1695 25.9325 18.9307C25.9325 18.4661 25.6284 18.1564 25.1723 18.1564C24.7162 18.1564 24.4122 18.4661 24.4122 18.9307C24.4122 20.2469 23.348 21.2534 22.1318 21.2534C20.8396 21.2534 19.8514 20.1695 19.8514 18.9307C19.8514 18.4661 19.5473 18.1564 19.0912 18.1564C18.6352 18.1564 18.3311 18.4661 18.3311 18.9307C18.3311 20.2469 17.2669 21.2534 16.0507 21.2534C14.8345 21.2534 13.7703 20.1695 13.7703 18.9307C13.7703 18.4661 13.4663 18.1564 13.0102 18.1564C12.5541 18.1564 12.25 18.4661 12.25 18.9307C12.25 20.2469 11.1859 21.2534 9.96964 21.2534C8.75342 21.2534 7.68923 20.1695 7.68923 18.9307V13.2012H36.5743V13.1238ZM7.46119 21.9502C8.0693 22.4922 8.90545 22.8019 9.7416 22.8019C11.0338 22.8019 12.098 22.1825 12.7821 21.176C13.4663 22.1051 14.6065 22.8019 15.8227 22.8019C17.1149 22.8019 18.1791 22.1825 18.8632 21.176C19.5473 22.1051 20.6875 22.8019 21.9037 22.8019C23.196 22.8019 24.2602 22.1825 24.9443 21.176C25.6284 22.1051 26.7686 22.8019 27.9848 22.8019C29.201 22.8019 30.3412 22.1825 31.0254 21.176C31.7095 22.1051 32.8497 22.8019 34.0659 22.8019C34.902 22.8019 35.7382 22.4922 36.3463 22.0276V27.4474H7.46119V21.9502ZM39.2348 28.9185V34.0285C39.2348 35.6544 37.9426 36.8932 36.4223 36.8932C34.826 36.8932 33.6098 35.577 33.6098 34.0285C33.6098 33.564 33.3058 33.2543 32.8497 33.2543C32.3936 33.2543 32.0895 33.564 32.0895 34.0285C32.0895 35.6544 30.7973 36.8932 29.277 36.8932C27.6808 36.8932 26.4645 35.577 26.4645 34.0285C26.4645 33.564 26.1605 33.2543 25.7044 33.2543C25.2483 33.2543 24.9443 33.564 24.9443 34.0285C24.9443 35.6544 23.6521 36.8932 22.1318 36.8932C20.6115 36.8932 19.3193 35.577 19.3193 34.0285C19.3193 33.564 19.0152 33.2543 18.5592 33.2543C18.1031 33.2543 17.799 33.564 17.799 34.0285C17.799 35.6544 16.5068 36.8932 14.9865 36.8932C13.3902 36.8932 12.174 35.577 12.174 34.0285C12.174 33.564 11.87 33.2543 11.4139 33.2543C10.9578 33.2543 10.6538 33.564 10.6538 34.0285C10.6538 35.6544 9.36153 36.8932 7.84126 36.8932C6.24498 36.8932 5.02876 35.577 5.02876 34.0285V28.9959H39.2348V28.9185ZM4.80072 44.9454C5.56086 45.6422 6.54903 46.0294 7.61322 46.0294C9.13349 46.0294 10.4257 45.2551 11.1859 44.0937C11.946 45.2551 13.3142 46.0294 14.7585 46.0294C16.2788 46.0294 17.571 45.2551 18.3311 44.0937C19.0912 45.2551 20.4595 46.0294 21.9037 46.0294C23.348 46.0294 24.7162 45.2551 25.4764 44.0937C26.2365 45.2551 27.6047 46.0294 29.049 46.0294C30.5693 46.0294 31.8615 45.2551 32.6216 44.0937C33.3818 45.2551 34.75 46.0294 36.1943 46.0294C37.2585 46.0294 38.2466 45.6422 39.0068 44.9454V50.6749H4.80072V44.9454ZM1.68417 52.9202C1.68417 52.6105 1.98823 52.3008 2.29228 52.3008H41.8193C42.1233 52.3008 42.4274 52.6105 42.4274 52.9202V53.9267C42.4274 54.2364 42.1233 54.5461 41.8193 54.5461H2.29228C1.98823 54.5461 1.68417 54.2364 1.68417 53.9267V52.9202Z" fill="#E58383"/>
</svg>
